<svg width="22" height="22" viewBox="0 0 22 22" fill="none" xmlns="http://www.w3.org/2000/svg">
<path d="M19.2774 13.75H8.08088L8.33086 15.125H18.5829C19.1712 15.125 19.6072 15.7395 19.4768 16.3848L19.2661 17.4279C19.98 17.8178 20.4722 18.641 20.4722 19.5937C20.4722 20.9345 19.4975 22.0191 18.3019 21.9997C17.1628 21.9813 16.226 20.9414 16.1952 19.6602C16.1784 18.9604 16.4277 18.3261 16.837 17.875H8.82964C9.22598 18.3118 9.47222 18.9203 9.47222 19.5937C9.47222 20.9607 8.459 22.0615 7.23136 21.9973C6.14129 21.9404 5.25475 20.9495 5.19746 19.7236C5.15323 18.7768 5.59606 17.9423 6.26886 17.507L3.58581 2.75H0.916667C0.410399 2.75 0 2.2883 0 1.71875V1.03125C0 0.461699 0.410399 0 0.916667 0H4.83271C5.26816 0 5.6435 0.344652 5.73077 0.82457L6.08086 2.75H21.083C21.6712 2.75 22.1072 3.3645 21.9768 4.0098L20.1713 12.9473C20.0764 13.4168 19.7054 13.75 19.2774 13.75ZM15.3935 8.25H13.75V5.67187C13.75 5.38712 13.5448 5.15625 13.2917 5.15625H12.375C12.1219 5.15625 11.9167 5.38712 11.9167 5.67187V8.25H10.2732C9.86486 8.25 9.66037 8.80541 9.94912 9.13021L12.5093 12.0104C12.6882 12.2117 12.9784 12.2117 13.1575 12.0104L15.7176 9.13021C16.0063 8.80541 15.8018 8.25 15.3935 8.25Z" fill="white"/>
</svg>
