<svg width="16" height="16" viewBox="0 0 16 16" fill="none" xmlns="http://www.w3.org/2000/svg">
<path fill-rule="evenodd" clip-rule="evenodd" d="M1.53284 7.52876C1.79392 7.26841 2.2172 7.26841 2.47828 7.52876L5.15237 10.1954C5.41344 10.4558 5.41344 10.8779 5.15237 11.1382C4.89129 11.3986 4.46801 11.3986 4.20693 11.1382L1.53284 8.47157C1.27177 8.21122 1.27177 7.78911 1.53284 7.52876Z" fill="#2D9CDB"/>
<path fill-rule="evenodd" clip-rule="evenodd" d="M6.21253 8.19526C6.4736 7.93491 6.89689 7.93491 7.15796 8.19526L9.16353 10.1953C9.42461 10.4556 9.42461 10.8777 9.16353 11.1381C8.90246 11.3984 8.47917 11.3984 8.2181 11.1381L6.21253 9.13807C5.95146 8.87772 5.95146 8.45561 6.21253 8.19526Z" fill="#2D9CDB"/>
<path fill-rule="evenodd" clip-rule="evenodd" d="M10.5005 4.86177C10.7616 5.12212 10.7616 5.54423 10.5005 5.80457L5.15235 11.1379C4.89127 11.3983 4.46799 11.3983 4.20691 11.1379C3.94584 10.8776 3.94584 10.4554 4.20691 10.1951L9.5551 4.86177C9.81617 4.60142 10.2395 4.60142 10.5005 4.86177Z" fill="#2D9CDB"/>
<path fill-rule="evenodd" clip-rule="evenodd" d="M14.5116 4.86177C14.7727 5.12212 14.7727 5.54423 14.5116 5.80457L9.16346 11.1379C8.90238 11.3983 8.4791 11.3983 8.21802 11.1379C7.95695 10.8776 7.95695 10.4554 8.21802 10.1951L13.5662 4.86177C13.8273 4.60142 14.2506 4.60142 14.5116 4.86177Z" fill="#2D9CDB"/>
</svg>
