<svg width="18" height="18" viewBox="0 0 18 18" fill="none" xmlns="http://www.w3.org/2000/svg">
<path d="M13.6559 2.3584H3.77058C2.99066 2.3584 2.3584 2.99066 2.3584 3.77058V13.6559C2.3584 14.4358 2.99066 15.0681 3.77058 15.0681H13.6559C14.4358 15.0681 15.0681 14.4358 15.0681 13.6559V3.77058C15.0681 2.99066 14.4358 2.3584 13.6559 2.3584Z" stroke="#667080" stroke-width="1.41219" stroke-linecap="round" stroke-linejoin="round"/>
<path d="M6.242 7.30138C6.82695 7.30138 7.30114 6.82719 7.30114 6.24225C7.30114 5.6573 6.82695 5.18311 6.242 5.18311C5.65705 5.18311 5.18286 5.6573 5.18286 6.24225C5.18286 6.82719 5.65705 7.30138 6.242 7.30138Z" stroke="#667080" stroke-width="1.41219" stroke-linecap="round" stroke-linejoin="round"/>
<path d="M15.0682 10.8317L11.5378 7.30127L3.77075 15.0683" stroke="#667080" stroke-width="1.41219" stroke-linecap="round" stroke-linejoin="round"/>
</svg>
