<svg width="36" height="36" viewBox="0 0 36 36" fill="none" xmlns="http://www.w3.org/2000/svg">
<path d="M34.9145 14.6216H33.525V14.55H18V21.45H27.7488C26.3266 25.4667 22.5048 28.35 18 28.35C12.2842 28.35 7.65 23.7158 7.65 18C7.65 12.2842 12.2842 7.65 18 7.65C20.6384 7.65 23.0387 8.64532 24.8664 10.2711L29.7455 5.39197C26.6647 2.52071 22.5436 0.75 18 0.75C8.47369 0.75 0.75 8.47368 0.75 18C0.75 27.5263 8.47369 35.25 18 35.25C27.5263 35.25 35.25 27.5263 35.25 18C35.25 16.8434 35.131 15.7144 34.9145 14.6216Z" fill="#FFC107"/>
<path d="M2.73885 9.97098L8.40633 14.1274C9.93986 10.3306 13.6538 7.64999 17.9999 7.64999C20.6383 7.64999 23.0386 8.64532 24.8663 10.2711L29.7454 5.39197C26.6646 2.52071 22.5436 0.75 17.9999 0.75C11.3742 0.75 5.62822 4.49066 2.73885 9.97098Z" fill="#FF3D00"/>
<path d="M18.0001 35.2503C22.4558 35.2503 26.5043 33.5451 29.5653 30.7722L24.2265 26.2544C22.4364 27.6158 20.249 28.3521 18.0001 28.3503C13.5134 28.3503 9.7037 25.4894 8.2685 21.4969L2.64328 25.8309C5.49815 31.4174 11.2959 35.2503 18.0001 35.2503Z" fill="#4CAF50"/>
<path d="M34.9145 14.621H33.525V14.5494H18V21.4494H27.7488C27.0685 23.3611 25.843 25.0316 24.2238 26.2544L24.2264 26.2527L29.5653 30.7705C29.1875 31.1138 35.25 26.6245 35.25 17.9994C35.25 16.8428 35.131 15.7138 34.9145 14.621Z" fill="#1976D2"/>
</svg>
