<svg width="28" height="28" viewBox="0 0 28 28" fill="none" xmlns="http://www.w3.org/2000/svg">
<path d="M2.05664 13.4609C2.05664 13.9688 2.44727 14.4082 3.07227 14.4082C3.375 14.4082 3.64844 14.2422 3.89258 14.0469L5.00586 13.1094V22.1914C5.00586 23.6367 5.875 24.4961 7.36914 24.4961H20.582C22.0664 24.4961 22.9453 23.6367 22.9453 22.1914V13.0605L24.1172 14.0469C24.3516 14.2422 24.625 14.4082 24.9277 14.4082C25.5039 14.4082 25.9434 14.0469 25.9434 13.4805C25.9434 13.1484 25.8164 12.8848 25.5625 12.6699L22.9453 10.4629V6.30273C22.9453 5.86328 22.6621 5.58984 22.2227 5.58984H20.875C20.4453 5.58984 20.1523 5.86328 20.1523 6.30273V8.11914L15.3965 4.125C14.5469 3.41211 13.4727 3.41211 12.623 4.125L2.44727 12.6699C2.18359 12.8848 2.05664 13.1777 2.05664 13.4609ZM16.8125 16.1562C16.8125 15.6973 16.5195 15.4043 16.0605 15.4043H11.959C11.5 15.4043 11.1973 15.6973 11.1973 16.1562V22.5527H7.88672C7.28125 22.5527 6.94922 22.2109 6.94922 21.5957V11.4785L13.5801 5.91211C13.8535 5.67773 14.166 5.67773 14.4395 5.91211L20.9922 11.4199V21.5957C20.9922 22.2109 20.6602 22.5527 20.0547 22.5527H16.8125V16.1562Z" fill="#8E8E93"/>
</svg>
