<svg width="24" height="24" viewBox="0 0 24 24" fill="none" xmlns="http://www.w3.org/2000/svg">
    <defs>
        <linearGradient id="paint0_linear_143_2152" x1="12" y1="2" x2="12" y2="14"
            gradientUnits="userSpaceOnUse">
            <stop stop-color="#37A3C8" />
            <stop offset="1" stop-color="#574FF9" />
        </linearGradient>
    </defs>
    <path
        d="M12 14C13.66 14 15 12.66 15 11V5C15 3.34 13.66 2 12 2C10.34 2 9 3.34 9 5V11C9 12.66 10.34 14 12 14Z"
        fill="url(#paint0_linear_143_2152)" />
    <path
        d="M17 11C17 13.76 14.76 16 12 16C9.24 16 7 13.76 7 11H5C5 14.53 7.61 17.43 11 17.92V21H13V17.92C16.39 17.43 19 14.53 19 11H17Z"
        fill="#F91414" />
</svg>
