<svg width="141" height="141" viewBox="0 0 141 141" fill="none" xmlns="http://www.w3.org/2000/svg">
<path d="M70.351 7.78926C58.0265 7.78926 45.9787 11.4439 35.7313 18.291C25.4838 25.1382 17.4969 34.8703 12.7805 46.2566C8.06411 57.643 6.83009 70.1722 9.23448 82.26C11.6389 94.3477 17.5737 105.451 26.2884 114.166C35.0032 122.88 46.1065 128.815 58.1942 131.22C70.2819 133.624 82.8111 132.39 94.1975 127.674C105.584 122.957 115.316 114.97 122.163 104.723C129.01 94.4754 132.665 82.4276 132.665 70.1031C132.665 53.5765 126.1 37.7267 114.414 26.0406C102.727 14.3545 86.8777 7.78926 70.351 7.78926ZM70.351 124.628C59.567 124.628 49.0253 121.43 40.0587 115.439C31.0922 109.447 24.1036 100.932 19.9768 90.9688C15.85 81.0057 14.7702 70.0426 16.874 59.4659C18.9779 48.8892 24.1709 39.1738 31.7963 31.5484C39.4217 23.923 49.137 18.73 59.7138 16.6262C70.2905 14.5223 81.2536 15.6021 91.2167 19.7289C101.18 23.8558 109.695 30.8443 115.687 39.8109C121.678 48.7774 124.876 59.3192 124.876 70.1031C124.876 84.564 119.131 98.4325 108.906 108.658C98.6804 118.883 84.8118 124.628 70.351 124.628Z" fill="#37A3C8"/>
<path d="M109.297 47.1261C108.567 46.4007 107.58 45.9936 106.551 45.9936C105.522 45.9936 104.535 46.4007 103.805 47.1261L60.575 90.1616L37.2073 66.7939C36.4946 66.0244 35.5054 65.5695 34.4573 65.5293C33.4092 65.4892 32.3881 65.867 31.6186 66.5797C30.849 67.2924 30.3941 68.2816 30.354 69.3297C30.3138 70.3778 30.6916 71.399 31.4043 72.1685L60.575 101.261L109.297 52.6565C109.662 52.2944 109.951 51.8637 110.149 51.3891C110.347 50.9145 110.449 50.4054 110.449 49.8913C110.449 49.3771 110.347 48.8681 110.149 48.3935C109.951 47.9189 109.662 47.4882 109.297 47.1261Z" fill="#37A3C8"/>
</svg>
