<svg width="24" height="24" viewBox="0 0 24 24" fill="none" xmlns="http://www.w3.org/2000/svg">
<path d="M20.9998 23.5H2.99983C2.92622 23.5 2.85351 23.4838 2.78688 23.4525C2.72026 23.4212 2.66137 23.3756 2.61442 23.3189C2.56747 23.2622 2.53361 23.1959 2.51528 23.1246C2.49694 23.0533 2.49457 22.9788 2.50833 22.9065L4.49983 12.453V7C4.49983 6.86739 4.55251 6.74021 4.64628 6.64645C4.74005 6.55268 4.86722 6.5 4.99983 6.5H18.9998C19.1324 6.5 19.2596 6.55268 19.3534 6.64645C19.4472 6.74021 19.4998 6.86739 19.4998 7V12.453L21.4908 22.9065C21.5046 22.9788 21.5022 23.0532 21.4839 23.1244C21.4656 23.1957 21.4318 23.262 21.3849 23.3187C21.338 23.3754 21.2792 23.421 21.2126 23.4524C21.1461 23.4837 21.0734 23.5 20.9998 23.5Z" fill="#898A8D"/>
<path d="M15.5 10.5C15.3674 10.5 15.2402 10.4473 15.1464 10.3536C15.0527 10.2598 15 10.1326 15 10V4.5C15 3.70435 14.6839 2.94129 14.1213 2.37868C13.5587 1.81607 12.7956 1.5 12 1.5C11.2044 1.5 10.4413 1.81607 9.87868 2.37868C9.31607 2.94129 9 3.70435 9 4.5V10C9 10.1326 8.94732 10.2598 8.85355 10.3536C8.75979 10.4473 8.63261 10.5 8.5 10.5C8.36739 10.5 8.24021 10.4473 8.14645 10.3536C8.05268 10.2598 8 10.1326 8 10V4.5C8 3.43913 8.42143 2.42172 9.17157 1.67157C9.92172 0.921427 10.9391 0.5 12 0.5C13.0609 0.5 14.0783 0.921427 14.8284 1.67157C15.5786 2.42172 16 3.43913 16 4.5V10C16 10.1326 15.9473 10.2598 15.8536 10.3536C15.7598 10.4473 15.6326 10.5 15.5 10.5Z" fill="#898A8D"/>
</svg>
