<svg width="24" height="24" viewBox="0 0 24 24" fill="none" xmlns="http://www.w3.org/2000/svg">
<g clip-path="url(#clip0_657_2697)">
<path d="M23.3418 17.0601L22.0638 16.6001L13.3678 19.7581C12.4872 20.0773 11.5225 20.0773 10.6418 19.7581L1.93585 16.6001L0.657849 17.0601C0.464798 17.1302 0.298002 17.258 0.18013 17.4262C0.0622566 17.5943 -0.000976562 17.7947 -0.000976562 18.0001C-0.000976563 18.2055 0.0622566 18.4059 0.18013 18.574C0.298002 18.7422 0.464798 18.87 0.657849 18.9401L11.6578 22.9401C11.8788 23.0205 12.1209 23.0205 12.3418 22.9401L23.3418 18.9401C23.5349 18.87 23.7017 18.7422 23.8196 18.574C23.9374 18.4059 24.0007 18.2055 24.0007 18.0001C24.0007 17.7947 23.9374 17.5943 23.8196 17.4262C23.7017 17.258 23.5349 17.1302 23.3418 17.0601Z" fill="#37A3C8"/>
<path d="M23.3418 11.0601L22.0638 10.6001L13.3678 13.7581C12.4872 14.0773 11.5225 14.0773 10.6418 13.7581L1.93585 10.6001L0.657849 11.0601C0.464798 11.1302 0.298002 11.258 0.18013 11.4262C0.0622566 11.5943 -0.000976562 11.7947 -0.000976562 12.0001C-0.000976562 12.2055 0.0622566 12.4059 0.18013 12.574C0.298002 12.7422 0.464798 12.87 0.657849 12.9401L11.6578 16.9401C11.8788 17.0205 12.1209 17.0205 12.3418 16.9401L23.3418 12.9401C23.5349 12.87 23.7017 12.7422 23.8196 12.574C23.9374 12.4059 24.0007 12.2055 24.0007 12.0001C24.0007 11.7947 23.9374 11.5943 23.8196 11.4262C23.7017 11.258 23.5349 11.1302 23.3418 11.0601Z" fill="#37A3C8"/>
<path d="M23.3418 5.06006L12.3418 1.06006C12.1209 0.979656 11.8788 0.979656 11.6578 1.06006L0.657849 5.06006C0.464798 5.13012 0.298002 5.25793 0.18013 5.42611C0.0622566 5.59429 -0.000976562 5.79468 -0.000976562 6.00006C-0.000976562 6.20543 0.0622566 6.40582 0.18013 6.574C0.298002 6.74218 0.464798 6.86999 0.657849 6.94006L11.6578 10.9401C11.8788 11.0205 12.1209 11.0205 12.3418 10.9401L23.3418 6.94006C23.5349 6.86999 23.7017 6.74218 23.8196 6.574C23.9374 6.40582 24.0007 6.20543 24.0007 6.00006C24.0007 5.79468 23.9374 5.59429 23.8196 5.42611C23.7017 5.25793 23.5349 5.13012 23.3418 5.06006Z" fill="#37A3C8"/>
</g>
<defs>
<clipPath id="clip0_657_2697">
<rect width="24" height="24" fill="white"/>
</clipPath>
</defs>
</svg>
