<svg width="20" height="20" viewBox="0 0 20 20" fill="none" xmlns="http://www.w3.org/2000/svg">
<path d="M4.0625 11.25H0.937501C0.419727 11.25 0 10.8303 0 10.3125V0.9375C0 0.419727 0.419727 0 0.937501 0H4.0625C4.58028 0 5 0.419727 5 0.9375V10.3125C5 10.8303 4.58028 11.25 4.0625 11.25ZM2.5 1.5625C1.98223 1.5625 1.5625 1.98223 1.5625 2.5C1.5625 3.01777 1.98223 3.4375 2.5 3.4375C3.01778 3.4375 3.4375 3.01777 3.4375 2.5C3.4375 1.98223 3.01778 1.5625 2.5 1.5625ZM15 16.8183C15 15.1614 13.9856 14.232 13.7001 13.125H17.6737C18.9783 13.125 19.9939 12.0412 20 10.8555C20.0033 10.1548 19.7052 9.40051 19.2406 8.93379L19.2363 8.92949C19.6206 8.01789 19.5581 6.74055 18.8727 5.82523C19.2118 4.81371 18.8701 3.57117 18.2328 2.90504C18.4007 2.21762 18.3205 1.63258 17.9927 1.1616C17.1954 0.0161324 15.2194 0 13.5484 0L13.4373 4.00543e-05C11.5511 0.000703812 10.0074 0.687462 8.76696 1.2393C8.14364 1.5166 7.32864 1.85988 6.71028 1.87125C6.45481 1.87594 6.25 2.08441 6.25 2.33992V10.6903C6.25 10.8153 6.30008 10.9353 6.38899 11.0232C7.93641 12.5522 8.6018 14.1711 9.87012 15.4416C10.4484 16.0209 10.6587 16.8961 10.862 17.7424C11.0357 18.4651 11.3991 20 12.1875 20C13.125 20 15 19.6875 15 16.8183Z" fill="#BD3131" fill-opacity="0.87"/>
</svg>
